<?xml version="1.0" standalone="no"?>
<!DOCTYPE svg PUBLIC "-//W3C//DTD SVG 20010904//EN"
 "http://www.w3.org/TR/2001/REC-SVG-20010904/DTD/svg10.dtd">
<svg version="1.0" xmlns="http://www.w3.org/2000/svg"
 width="512.000000pt" height="512.000000pt" viewBox="0 0 512.000000 512.000000"
 preserveAspectRatio="xMidYMid meet">

<g transform="translate(0.000000,512.000000) scale(0.100000,-0.100000)"
fill="#000000" stroke="none">
<path d="M1460 2805 l0 -1995 1345 0 1345 0 0 1688 0 1687 -308 308 -307 307
-1038 0 -1037 0 0 -1995z m625 1560 l25 -24 0 -430 0 -431 751 -2 751 -3 24
-28 c29 -34 31 -66 3 -101 l-20 -26 -809 0 c-780 0 -809 1 -831 19 l-24 19 -3
474 c-1 260 0 483 3 496 15 61 86 82 130 37z m1550 0 l25 -24 0 -366 0 -366
-25 -24 c-15 -16 -36 -25 -55 -25 -19 0 -40 9 -55 25 l-25 24 0 366 0 366 25
24 c15 16 36 25 55 25 19 0 40 -9 55 -25z m-814 -144 l29 -29 0 -292 0 -291
-25 -24 c-15 -16 -36 -25 -55 -25 -19 0 -40 9 -55 25 l-25 24 0 293 c1 306 1
311 45 336 32 18 55 14 86 -17z m403 -72 l26 -20 0 -264 0 -264 -26 -20 c-36
-29 -75 -27 -105 5 l-24 26 0 255 0 255 28 24 c34 29 66 31 101 3z m-807 -171
c22 -21 23 -26 23 -199 l0 -178 -26 -20 c-36 -29 -75 -27 -105 5 -23 25 -24
30 -24 194 0 164 1 169 24 194 31 33 76 34 108 4z m-289 -1088 c30 -28 30 -90
1 -116 -30 -27 -217 -34 -255 -9 -49 32 -52 108 -5 135 9 5 66 10 127 10 97 0
113 -2 132 -20z m1627 -5 c34 -33 32 -70 -4 -106 l-30 -29 -621 2 -622 3 -19
24 c-25 31 -24 79 3 108 l21 23 624 0 624 0 24 -25z m-1628 -507 c33 -31 32
-90 -3 -117 -23 -18 -41 -21 -131 -21 -102 0 -105 1 -134 29 -16 16 -29 37
-29 46 0 22 27 72 42 78 7 3 62 6 122 6 99 1 112 -1 133 -21z m1628 -3 c34
-33 32 -70 -4 -106 l-30 -29 -621 2 -622 3 -19 24 c-25 31 -24 79 3 108 l21
23 624 0 624 0 24 -25z m-1628 -507 c33 -31 32 -90 -3 -117 -23 -18 -41 -21
-131 -21 -102 0 -105 1 -134 29 -16 16 -29 37 -29 46 0 22 27 72 42 78 7 3 62
6 122 6 99 1 112 -1 133 -21z m1628 -3 c39 -38 27 -102 -22 -124 -17 -8 -208
-11 -634 -11 l-610 0 -24 25 c-32 31 -33 80 -3 112 l21 23 624 0 624 0 24 -25z
m-1628 -507 c33 -31 32 -90 -3 -117 -23 -18 -41 -21 -131 -21 -102 0 -105 1
-134 29 -31 32 -35 50 -17 84 21 41 39 46 152 47 99 0 112 -2 133 -22z m1628
-3 c39 -38 27 -102 -22 -124 -17 -8 -208 -11 -632 -11 -600 0 -609 0 -635 21
-20 16 -26 29 -26 59 0 30 6 43 26 59 26 21 35 21 646 21 l619 0 24 -25z"/>
<path d="M970 2315 l0 -1995 1345 0 1345 0 0 165 0 165 -1145 0 c-1219 0
-1191 -1 -1209 45 -3 9 -6 826 -6 1816 l0 1799 -165 0 -165 0 0 -1995z"/>
</g>
</svg>
